<svg xmlns="http://www.w3.org/2000/svg" width="100" height="100" viewBox="0 0 100 100"><path d="M34.77,82.29a1.91,1.91,0,0,1-1.42-3.19L42,69.53a1.91,1.91,0,1,1,2.83,2.56l-8.61,9.57A1.94,1.94,0,0,1,34.77,82.29ZM60,80.39h-.24a1.91,1.91,0,0,1-1.46-1L51.16,65.6a2.07,2.07,0,0,1-.22-.86l-12-10.8a1.91,1.91,0,0,1-.87-.13L23.64,48.15a1.88,1.88,0,0,1-1.16-1.33,1.93,1.93,0,0,1,.44-1.72C29.86,37.4,39.73,28.71,48.06,30q.63-.76,1.29-1.5C63.8,12.48,86.68,10,87.65,9.87a1.91,1.91,0,0,1,2.1,1.89c0,1-.1,24-14.55,40h0c-.45.5-.92,1-1.39,1.48,2.08,8.15-5.5,18.81-12.4,26.48A2,2,0,0,1,60,80.39Zm-4.64-15,5,9.72c6.33-7.44,9.79-14,9.94-18.64A58.73,58.73,0,0,1,55.35,65.4Zm-6.8-8L53.6,62A51.23,51.23,0,0,0,72.37,49.24,51.38,51.38,0,0,0,82.91,29.82L70.41,18.57A51.42,51.42,0,0,0,52.19,31.08a51.16,51.16,0,0,0-10.72,20Zm25.23-6.93h0Zm-46.14-4.9,10.27,4a58.52,58.52,0,0,1,7.35-15.87C40.62,34.36,34.44,38.49,27.64,45.62ZM74.4,17,84,25.7A71.5,71.5,0,0,0,85.84,14,71.85,71.85,0,0,0,74.4,17Zm-41,57.17a1.94,1.94,0,0,1-1.28-.48,1.91,1.91,0,0,1-.14-2.7l5.22-5.81A1.91,1.91,0,0,1,40,67.75l-5.22,5.81A1.91,1.91,0,0,1,33.36,74.19Zm-8.17-.52a1.93,1.93,0,0,1-1.27-.49,1.9,1.9,0,0,1-.14-2.7l8.61-9.57a1.91,1.91,0,0,1,2.84,2.55L26.61,73A1.89,1.89,0,0,1,25.19,73.67ZM49,70.5A1.88,1.88,0,0,1,47.76,70L34.15,57.76a1.91,1.91,0,0,1,2.55-2.84L50.31,67.17a1.9,1.9,0,0,1,.14,2.7A1.87,1.87,0,0,1,49,70.5ZM64.89,44.68a7.4,7.4,0,0,1-7.41-7,7.42,7.42,0,0,1,12.38-5.91,7.42,7.42,0,0,1-5,12.94Zm0-11a3.61,3.61,0,1,0,2.68,6h0a3.62,3.62,0,0,0-.27-5.1A3.57,3.57,0,0,0,64.89,33.65Z" transform="translate(0 0)" fill="#28aee4"/><path d="M50,100A50,50,0,1,1,69,3.74a2.42,2.42,0,1,1-1.83,4.47A45.12,45.12,0,1,0,92.39,34.36a2.42,2.42,0,0,1,4.53-1.68A50,50,0,0,1,50,100Z" transform="translate(0 0)" fill="#fff"/></svg>