<svg xmlns="http://www.w3.org/2000/svg" width="100" height="100" viewBox="0 0 100 100"><path d="M50,100A50,50,0,1,1,69,3.74a2.42,2.42,0,0,1-1.84,4.47A45.1,45.1,0,1,0,92.39,34.35a2.41,2.41,0,1,1,4.53-1.67A50,50,0,0,1,50,100Z" transform="translate(0)" fill="#fff"/><path d="M24.17,76a2.76,2.76,0,0,1,1.65-5,2.7,2.7,0,0,1,1.72.53A14.64,14.64,0,0,0,37,75c3.66,0,6-1.73,6-4.24v-.1c0-2.4-1.35-3.71-7.61-5.14-7.18-1.74-11.22-3.86-11.22-10.08v-.09c0-5.78,4.82-9.78,11.51-9.78a18.57,18.57,0,0,1,10.69,3.13,2.7,2.7,0,0,1,1.3,2.36,2.76,2.76,0,0,1-2.79,2.75,2.9,2.9,0,0,1-1.55-.43,14,14,0,0,0-7.75-2.56c-3.47,0-5.49,1.78-5.49,4v.09c0,2.61,1.54,3.76,8,5.3,7.14,1.74,10.8,4.29,10.8,9.87v.1c0,6.32-5,10.07-12,10.07A21,21,0,0,1,24.17,76Z" transform="translate(0)" fill="#28aee4"/><path d="M67.29,46.05H56.16a3,3,0,0,0-3,3v28A2.93,2.93,0,0,0,56,80a3.08,3.08,0,0,0,3.05-3.12v-8h0V63.57h0V51.43H66.8c4.44,0,7.28,2.08,7.28,6v.1c0,3.51-2.79,6-7.28,6H65a2.65,2.65,0,0,0-2.65,2.64v.07A2.65,2.65,0,0,0,65,68.92h1.63c7.42,0,13.49-4,13.49-11.51v-.09c0-6.8-4.91-11.27-12.81-11.27Z" transform="translate(0)" fill="#28aee4"/><path d="M23.11,25a2.09,2.09,0,1,1,4.18,0v5.59H35V25a2.09,2.09,0,1,1,4.18,0V40.2a2.09,2.09,0,0,1-4.18,0V34.49H27.29V40.2a2.09,2.09,0,0,1-4.18,0V25Z" transform="translate(0)" fill="#fff"/><path d="M42.73,40V25.21a2.09,2.09,0,0,1,2.1-2.1H55.36A1.88,1.88,0,0,1,57.24,25a1.85,1.85,0,0,1-1.88,1.84H46.89v3.86h7.25A1.88,1.88,0,0,1,56,32.57a1.86,1.86,0,0,1-1.88,1.84H46.89v4H55.5a1.88,1.88,0,0,1,1.88,1.88,1.86,1.86,0,0,1-1.88,1.84H44.83A2.08,2.08,0,0,1,42.73,40" transform="translate(0)" fill="#fff"/><path d="M60.21,25.1A2.08,2.08,0,0,1,62.3,23h.46a2.17,2.17,0,0,1,1.91,1.09l5,8.23,5.07-8.26A2.08,2.08,0,0,1,76.67,23h.46a2.08,2.08,0,0,1,2.09,2.1V40.2a2.08,2.08,0,1,1-4.16,0V30.71L71.4,36.37a2,2,0,0,1-1.73,1.06,2.07,2.07,0,0,1-1.75-1.06L64.31,30.8v9.45a2,2,0,0,1-2.07,2,2,2,0,0,1-2-2V25.1Z" transform="translate(0)" fill="#fff"/></svg>