<svg xmlns="http://www.w3.org/2000/svg" width="99.98" height="100" viewBox="0 0 99.98 100"><path d="M50,100A50,50,0,0,1,50,0,48.69,48.69,0,0,1,69.2,3.88a3.43,3.43,0,0,1-2.62,6.33,43.19,43.19,0,1,0,26.6,39.88,42.27,42.27,0,0,0-2.6-14.76A3.4,3.4,0,1,1,97,33a49.29,49.29,0,0,1,3,17.16A50,50,0,0,1,50,100Z" transform="translate(-0.01 0)" fill="#fff"/><polygon points="71.87 44.87 64.14 52.95 68.42 71.05 78.19 71.05 71.87 44.87 71.87 44.87" fill="#28aee4"/><polygon points="68.68 20.97 71.38 23.67 50 46.31 31.73 27.53 21.21 71.05 30.96 71.05 36.78 46.9 50 61.27 78.28 30.48 80.97 33.25 83.67 18.02 68.68 20.97 68.68 20.97" fill="#28aee4"/></svg>