<svg xmlns="http://www.w3.org/2000/svg" width="100" height="100" viewBox="0 0 100 100"><path d="M50,100A50,50,0,1,1,69,3.74a2.42,2.42,0,1,1-1.83,4.47A45.12,45.12,0,1,0,92.39,34.36a2.42,2.42,0,0,1,4.53-1.68A50,50,0,0,1,50,100Z" transform="translate(0 0)" fill="#fff"/><path d="M29.11,75a1.92,1.92,0,0,1-1.67-1L25,69.61H20.79a4.24,4.24,0,0,1-4.3-4.18V40.76a4.25,4.25,0,0,1,4.3-4.19H31.1a1.91,1.91,0,0,1,0,3.82H20.79a.44.44,0,0,0-.48.37V65.43a.44.44,0,0,0,.48.37h5.35a1.93,1.93,0,0,1,1.67,1l1.3,2.37,1.3-2.37a1.93,1.93,0,0,1,1.68-1h23.7a.44.44,0,0,0,.48-.37V60.18a1.91,1.91,0,1,1,3.81,0v5.25a4.23,4.23,0,0,1-4.29,4.18H33.21L30.78,74A1.89,1.89,0,0,1,29.11,75Zm42.14-13.4a1.91,1.91,0,0,1-1.61-.89l-3-4.74H39.48a4.75,4.75,0,0,1-4.76-4.72V22.36a4.75,4.75,0,0,1,4.76-4.73H81.24A4.75,4.75,0,0,1,86,22.36V51.27A4.75,4.75,0,0,1,81.24,56H75.86l-3,4.74a1.92,1.92,0,0,1-1.61.89ZM39.48,21.45a.94.94,0,0,0-.95.91V51.27a.93.93,0,0,0,.95.9H67.67a1.92,1.92,0,0,1,1.62.89l2,3.09,2-3.09a1.92,1.92,0,0,1,1.61-.89h6.43a.92.92,0,0,0,.94-.9V22.36a.93.93,0,0,0-.94-.91ZM71,44H51.21a1.91,1.91,0,1,1,0-3.81H71A1.91,1.91,0,1,1,71,44Zm0-9.06H51.21a1.91,1.91,0,0,1,0-3.82H71a1.91,1.91,0,1,1,0,3.82Z" transform="translate(0 0)" fill="#28aee4"/></svg>