<?xml version="1.0" encoding="utf-8"?>
<!-- Generator: Adobe Illustrator 26.0.2, SVG Export Plug-In . SVG Version: 6.00 Build 0)  -->
<svg version="1.1" id="Layer_1" xmlns="http://www.w3.org/2000/svg" xmlns:xlink="http://www.w3.org/1999/xlink" x="0px" y="0px"
	 viewBox="0 0 400 149.4" style="enable-background:new 0 0 400 149.4;" xml:space="preserve">
<style type="text/css">
	.st0{fill:#0F4264;}
	.st1{fill:#00AFF0;}
	.st2{fill:#00B0F0;}
</style>
<path class="st0" d="M261.5,70.6c0-1.7,1.3-3,3-3s3,1.3,3,3v8h11v-8c0-1.7,1.3-3,3-3s3,1.3,3,3v21.7c0,1.7-1.3,3-3,3s-3-1.3-3-3
	v-8.2h-11v8.2c0,1.7-1.3,3-3,3s-3-1.3-3-3V70.6z"/>
<path class="st0" d="M289.6,92V70.8c0-1.7,1.3-3,3-3h15.1c1.5,0,2.7,1.2,2.7,2.7c0,1.5-1.2,2.6-2.7,2.6c0,0,0,0,0,0h-12.1v5.5H306
	c1.5,0,2.7,1.2,2.7,2.7c0,1.5-1.2,2.7-2.6,2.7c0,0,0,0,0,0h-10.4v5.7h12.3c1.5,0,2.7,1.2,2.7,2.7c0,1.5-1.2,2.6-2.7,2.6c0,0,0,0,0,0
	h-15.3C290.9,95,289.6,93.7,289.6,92"/>
<path class="st0" d="M314.6,70.6c0-1.7,1.3-3,3-3h0.7c1.1,0,2.1,0.6,2.7,1.6l7.3,11.8l7.3-11.8c0.5-1,1.6-1.6,2.7-1.5h0.7
	c1.7,0,3,1.3,3,3v21.6c0.2,1.6-0.9,3.1-2.6,3.4s-3.1-0.9-3.4-2.6c0-0.3,0-0.5,0-0.8V78.7l-5.3,8.1c-0.7,1.4-2.4,1.9-3.8,1.2
	c-0.5-0.3-1-0.7-1.2-1.2l-5.2-8v13.6c0,1.6-1.3,2.9-2.9,2.9c0,0,0,0-0.1,0c-1.6,0-2.9-1.3-2.9-2.9c0,0,0,0,0,0L314.6,70.6z"/>
<path class="st1" d="M338.9,101.1c1.7,0,3,1.3,3,3s-1.3,3-3,3h-21.5c-1.7,0-3-1.3-3-3s1.3-3,3-3H338.9z"/>
<path class="st0" d="M348.4,73.5v-4.7c0-0.4,0.3-0.7,0.6-0.7c0,0,0,0,0,0h3.2c0.3,0,0.6,0.3,0.6,0.6c0,0,0,0,0,0
	c0,0.3-0.2,0.6-0.5,0.6c0,0,0,0,0,0h-2.6v1.2h2.2c0.3,0,0.6,0.3,0.6,0.6c0,0.3-0.2,0.6-0.6,0.6c0,0,0,0,0,0h-2.2V73h2.6
	c0.3,0,0.6,0.3,0.6,0.6c0,0,0,0,0,0c0,0.3-0.2,0.6-0.5,0.6c0,0,0,0,0,0H349C348.6,74.2,348.4,73.9,348.4,73.5
	C348.4,73.5,348.4,73.5,348.4,73.5"/>
<path class="st0" d="M356.3,73c0.9,0,1.7-0.7,1.7-1.7c0-0.1,0-0.1,0-0.2l0,0c0.1-0.9-0.6-1.8-1.6-1.8c-0.1,0-0.1,0-0.2,0h-1V73
	H356.3z M354,68.8c0-0.4,0.3-0.7,0.6-0.7c0,0,0,0,0,0h1.6c1.6-0.1,3,1.2,3.1,2.8c0,0.1,0,0.1,0,0.2l0,0c0,1.7-1.3,3-3,3
	c0,0,0,0-0.1,0h-1.6c-0.4,0-0.6-0.3-0.6-0.6c0,0,0,0,0,0V68.8z"/>
<path class="st0" d="M360.5,71.6v-2.9c0-0.4,0.2-0.7,0.6-0.7c0.4,0,0.7,0.2,0.7,0.6c0,0.1,0,0.1,0,0.2v2.8c0,1,0.5,1.5,1.2,1.5
	s1.2-0.5,1.2-1.5v-2.9c0-0.4,0.3-0.6,0.6-0.6c0.4,0,0.6,0.3,0.6,0.6c0,0,0,0,0,0v2.8c0,1.8-1,2.8-2.5,2.8S360.5,73.4,360.5,71.6"/>
<path class="st0" d="M366.6,71.2L366.6,71.2c0-1.7,1.3-3.1,3-3.2c0.7,0,1.4,0.2,1.9,0.6c0.2,0.1,0.2,0.3,0.2,0.5
	c0,0.3-0.2,0.6-0.6,0.6c-0.1,0-0.3,0-0.4-0.1c-0.3-0.3-0.7-0.4-1.2-0.4c-1,0.1-1.7,0.9-1.6,1.9l0,0c-0.1,1,0.6,1.8,1.6,1.9
	c0.5,0,1-0.1,1.4-0.5c0.1-0.1,0.2-0.1,0.4-0.1c0.3,0,0.6,0.3,0.6,0.6c0,0,0,0,0,0c0,0.2-0.1,0.4-0.2,0.5c-0.6,0.5-1.3,0.8-2.1,0.8
	c-1.7,0-3-1.3-3-3C366.6,71.2,366.6,71.2,366.6,71.2"/>
<path class="st0" d="M376.3,71.7l-0.8-2l-0.8,2H376.3z M372.7,73.3l2-4.8c0.1-0.3,0.4-0.5,0.7-0.5h0.1c0.3,0,0.6,0.2,0.7,0.5l2,4.8
	c0,0.1,0.1,0.2,0.1,0.3c0,0.3-0.3,0.6-0.6,0.6c0,0,0,0,0,0c-0.3,0-0.5-0.2-0.6-0.5l-0.4-1h-2.5l-0.4,1c-0.1,0.2-0.3,0.4-0.6,0.4
	c-0.3,0-0.6-0.3-0.6-0.6c0,0,0,0,0,0C372.6,73.5,372.7,73.4,372.7,73.3"/>
<path class="st0" d="M380.2,69.3H379c-0.3,0-0.6-0.3-0.6-0.6c0,0,0,0,0,0c0-0.3,0.3-0.6,0.6-0.6c0,0,0,0,0,0h3.7
	c0.3,0,0.6,0.3,0.6,0.6c0,0,0,0,0,0c0,0.3-0.3,0.6-0.6,0.6h-1.2v4.2c0,0.4-0.2,0.7-0.6,0.7c-0.4,0-0.7-0.2-0.7-0.6
	c0-0.1,0-0.1,0-0.2L380.2,69.3z"/>
<path class="st0" d="M384.3,68.7c0-0.4,0.3-0.6,0.6-0.6c0.4,0,0.6,0.3,0.6,0.6c0,0,0,0,0,0v4.8c0,0.4-0.3,0.6-0.6,0.6
	c-0.4,0-0.6-0.3-0.6-0.6c0,0,0,0,0,0V68.7z"/>
<path class="st0" d="M391.7,71.2L391.7,71.2c0.1-1-0.7-1.8-1.7-1.9c0,0,0,0-0.1,0c-1,0-1.8,0.8-1.7,1.8c0,0,0,0,0,0.1l0,0
	c-0.1,1,0.7,1.9,1.7,1.9c0,0,0.1,0,0.1,0C391,73,391.8,72.2,391.7,71.2C391.7,71.2,391.7,71.2,391.7,71.2 M386.9,71.2L386.9,71.2
	c-0.1-1.7,1.3-3.1,3-3.2c0,0,0.1,0,0.1,0c1.7,0,3,1.3,3,3c0,0,0,0.1,0,0.1l0,0c0,1.7-1.4,3.1-3.1,3.1S386.9,72.8,386.9,71.2"/>
<path class="st0" d="M394.2,68.8c0-0.4,0.3-0.7,0.6-0.7c0,0,0,0,0,0h0.1c0.3,0,0.5,0.2,0.7,0.4l2.5,3.4v-3.1c0-0.4,0.3-0.7,0.6-0.7
	c0,0,0,0,0,0c0.4,0,0.6,0.3,0.6,0.7v4.8c0,0.4-0.3,0.7-0.6,0.7l0,0c-0.3,0-0.5-0.2-0.7-0.4l-2.5-3.5v3.3c0,0.3-0.2,0.7-0.5,0.7
	s-0.7-0.2-0.7-0.5c0-0.1,0-0.1,0-0.2L394.2,68.8z"/>
<path class="st0" d="M348.4,79.2c0-0.4,0.3-0.6,0.6-0.7c0,0,0,0,0,0h0.1c0.2,0,0.5,0.1,0.6,0.3l1.5,2.6l1.5-2.7
	c0.1-0.2,0.3-0.3,0.6-0.3h0.1c0.4,0,0.6,0.3,0.6,0.6c0,0,0,0,0,0V84c0,0.3-0.3,0.6-0.6,0.6s-0.6-0.3-0.6-0.6l0,0v-3l-1.1,1.8
	c-0.1,0.3-0.5,0.4-0.8,0.3c-0.1-0.1-0.2-0.2-0.3-0.3l-1.1-1.8v3c0,0.4-0.3,0.6-0.6,0.7c0,0,0,0,0,0c-0.3,0-0.6-0.3-0.6-0.6
	c0,0,0,0,0,0V79.2z"/>
<path class="st0" d="M358.9,82.1l-0.8-2l-0.8,2H358.9z M355.3,83.8l2-4.8c0.1-0.3,0.4-0.5,0.7-0.5h0.1c0.3,0,0.6,0.2,0.7,0.5l2,4.8
	c0.1,0.1,0.1,0.1,0.1,0.2c0,0.3-0.3,0.6-0.6,0.7c-0.3,0-0.5-0.2-0.6-0.5l-0.4-1h-2.5l-0.4,1c-0.1,0.3-0.3,0.4-0.6,0.4
	c-0.3,0-0.6-0.3-0.6-0.6c0,0,0,0,0,0C355.3,83.9,355.3,83.8,355.3,83.8"/>
<path class="st0" d="M364.6,81.5c0.5,0.1,0.9-0.2,1-0.7c0-0.1,0-0.1,0-0.2l0,0c0-0.6-0.4-0.9-1-0.9h-1.3v1.8L364.6,81.5z M362,79.2
	c0-0.4,0.3-0.7,0.6-0.7c0,0,0,0,0,0h2c0.6,0,1.2,0.2,1.7,0.6c0.3,0.4,0.5,0.9,0.5,1.4l0,0c0.1,0.8-0.4,1.6-1.1,1.9l0.9,1.1
	c0.1,0.1,0.2,0.3,0.2,0.5c0,0.3-0.3,0.6-0.6,0.6c0,0,0,0,0,0c-0.3,0-0.5-0.1-0.6-0.3l-1.2-1.7h-1V84c0,0.4-0.2,0.7-0.6,0.7
	c-0.4,0-0.7-0.2-0.7-0.6c0-0.1,0-0.1,0-0.2L362,79.2z"/>
<path class="st0" d="M368.1,79.2c0-0.4,0.3-0.6,0.6-0.6c0.4,0,0.6,0.3,0.6,0.6c0,0,0,0,0,0v2l2.3-2.4c0.1-0.2,0.3-0.3,0.5-0.3
	c0.3,0,0.6,0.3,0.6,0.6c0,0,0,0,0,0c0,0.2-0.1,0.4-0.2,0.5l-1.6,1.6l1.8,2.3c0.1,0.1,0.2,0.3,0.2,0.5c0,0.4-0.3,0.6-0.6,0.7
	c0,0,0,0,0,0c-0.2,0-0.4-0.1-0.5-0.3l-1.6-2.3l-0.7,0.7V84c0,0.4-0.3,0.6-0.6,0.6c-0.4,0-0.6-0.3-0.6-0.6c0,0,0,0,0,0L368.1,79.2z"
	/>
<path class="st0" d="M374.1,84v-4.8c0-0.4,0.3-0.7,0.6-0.7c0,0,0,0,0,0h3.2c0.3,0,0.6,0.3,0.6,0.6c0,0.3-0.2,0.6-0.6,0.6
	c0,0,0,0,0,0h-2.6V81h2.2c0.3,0,0.6,0.3,0.6,0.6c0,0,0,0,0,0c0,0.3-0.2,0.6-0.6,0.6h-2.2v1.3h2.7c0.3,0,0.6,0.3,0.6,0.6
	c0,0.3-0.2,0.6-0.6,0.6c0,0,0,0,0,0h-3.3C374.3,84.6,374.1,84.4,374.1,84C374.1,84,374.1,84,374.1,84"/>
<path class="st0" d="M381,79.8h-1.2c-0.3,0-0.6-0.3-0.6-0.6c0,0,0,0,0,0c0-0.3,0.3-0.6,0.6-0.6h3.7c0.3,0,0.6,0.3,0.6,0.6
	c0,0,0,0,0,0c0,0.3-0.2,0.6-0.6,0.6c0,0,0,0,0,0h-1.2V84c0,0.4-0.3,0.6-0.6,0.6S381,84.4,381,84V79.8z"/>
<path class="st0" d="M385.2,79.2c0-0.4,0.2-0.7,0.6-0.7c0.4,0,0.7,0.2,0.7,0.6c0,0.1,0,0.1,0,0.2V84c0,0.4-0.2,0.7-0.6,0.7
	c-0.4,0-0.7-0.2-0.7-0.6c0-0.1,0-0.1,0-0.2V79.2z"/>
<path class="st0" d="M388,79.2c0-0.4,0.3-0.6,0.6-0.7c0,0,0,0,0,0h0.1c0.3,0,0.5,0.2,0.7,0.4l2.5,3.4v-3.1c0-0.3,0.2-0.7,0.5-0.7
	s0.7,0.2,0.7,0.5c0,0.1,0,0.1,0,0.2V84c0,0.4-0.3,0.7-0.6,0.7c0,0,0,0,0,0l0,0c-0.3,0-0.5-0.2-0.7-0.4l-2.5-3.5V84
	c0,0.4-0.3,0.6-0.6,0.6S388,84.4,388,84V79.2z"/>
<path class="st0" d="M394.3,81.6L394.3,81.6c0-1.7,1.4-3.2,3.1-3.2c0.7,0,1.3,0.2,1.9,0.6c0.3,0.2,0.3,0.6,0.1,0.9
	c-0.1,0.2-0.3,0.2-0.5,0.3c-0.1,0-0.3,0-0.4-0.1c-0.4-0.3-0.8-0.4-1.3-0.4c-1,0.1-1.7,0.9-1.7,1.9l0,0c-0.1,1,0.6,1.8,1.6,1.9
	c0,0,0.1,0,0.1,0c0.4,0,0.8-0.1,1.2-0.4v-0.9h-0.9c-0.3,0-0.6-0.3-0.6-0.6c0,0,0,0,0,0c0-0.3,0.2-0.6,0.6-0.6c0,0,0,0,0,0h1.5
	c0.4,0,0.6,0.3,0.6,0.7c0,0,0,0,0,0v1.5c0,0.3-0.2,0.7-0.5,0.8c-0.6,0.4-1.3,0.6-2,0.6c-1.7,0-3-1.3-3-3
	C394.4,81.7,394.4,81.7,394.3,81.6"/>
<path class="st0" d="M348.3,94.4c-0.2-0.1-0.2-0.3-0.2-0.5c0-0.3,0.3-0.6,0.6-0.6c0,0,0,0,0,0c0.1,0,0.3,0,0.4,0.1
	c0.4,0.3,1,0.5,1.5,0.6c0.5,0,0.9-0.2,0.9-0.6l0,0c0-0.3-0.2-0.5-1.2-0.8c-1.2-0.3-2-0.7-2-1.9l0,0c0-1,0.9-1.9,1.9-1.8
	c0.1,0,0.1,0,0.2,0c0.7,0,1.3,0.2,1.9,0.5c0.3,0.2,0.4,0.6,0.2,0.9c-0.1,0.2-0.3,0.3-0.5,0.3c-0.1,0-0.2,0-0.3-0.1
	c-0.4-0.2-0.8-0.4-1.2-0.4c-0.5,0-0.8,0.2-0.8,0.5l0,0c0,0.4,0.2,0.5,1.3,0.8c1.2,0.3,1.9,0.8,1.9,1.8l0,0c0,1.2-0.9,1.9-2.2,1.9
	C349.7,95.2,348.9,94.9,348.3,94.4"/>
<path class="st0" d="M358.6,92L358.6,92c0-1-0.7-1.9-1.7-1.9c0,0,0,0-0.1,0c-1,0-1.8,0.8-1.8,1.8c0,0,0,0.1,0,0.1l0,0
	c0,1,0.7,1.9,1.7,1.9c0,0,0,0,0.1,0C357.9,93.9,358.7,93.1,358.6,92C358.7,92.1,358.7,92,358.6,92 M353.6,92L353.6,92
	c0-1.8,1.4-3.2,3.2-3.2s3.2,1.4,3.2,3.2l0,0l0,0c-0.1,1.7-1.6,3.1-3.3,3C355,94.9,353.8,93.6,353.6,92"/>
<path class="st0" d="M361.3,89.6c0-0.4,0.2-0.7,0.6-0.7c0.4,0,0.7,0.2,0.7,0.6c0,0.1,0,0.1,0,0.2v4.2h2.4c0.3,0,0.6,0.3,0.6,0.6
	s-0.3,0.6-0.6,0.6h-3.1c-0.4,0-0.7-0.3-0.6-0.7c0,0,0,0,0,0L361.3,89.6z"/>
<path class="st0" d="M366.4,92.5v-2.9c0-0.4,0.3-0.7,0.7-0.7s0.7,0.3,0.7,0.7v2.8c0,1,0.5,1.5,1.3,1.5s1.3-0.5,1.3-1.5v-2.9
	c0-0.4,0.2-0.7,0.6-0.7c0.4,0,0.7,0.2,0.7,0.6c0,0.1,0,0.1,0,0.2v2.8c0.2,1.3-0.7,2.5-2.1,2.7c-0.2,0-0.3,0-0.5,0
	c-1.3,0.1-2.5-0.9-2.6-2.2C366.4,92.8,366.4,92.6,366.4,92.5"/>
<path class="st0" d="M374.4,90.2h-1.3c-0.3,0-0.6-0.3-0.6-0.6c0-0.3,0.3-0.6,0.6-0.6h3.9c0.3,0,0.6,0.3,0.6,0.6
	c0,0.3-0.3,0.6-0.6,0.6h-1.3v4.2c0,0.4-0.2,0.7-0.6,0.7c-0.4,0-0.7-0.2-0.7-0.6c0-0.1,0-0.1,0-0.2L374.4,90.2z"/>
<path class="st0" d="M378.7,89.6c0-0.4,0.2-0.7,0.6-0.7c0.4,0,0.7,0.2,0.7,0.6c0,0.1,0,0.1,0,0.2v4.8c0,0.4-0.2,0.7-0.6,0.7
	c-0.4,0-0.7-0.2-0.7-0.6c0-0.1,0-0.1,0-0.2V89.6z"/>
<path class="st0" d="M386.2,92L386.2,92c0-1-0.7-1.9-1.7-1.9c0,0,0,0-0.1,0c-1,0-1.8,0.8-1.8,1.8c0,0,0,0,0,0.1l0,0
	c0,1,0.7,1.9,1.8,1.9c0,0,0,0,0.1,0C385.5,93.9,386.3,93.1,386.2,92C386.3,92.1,386.3,92,386.2,92 M381.2,92L381.2,92
	c0-1.8,1.4-3.2,3.2-3.2c1.7,0,3.2,1.4,3.2,3.2l0,0c0,1.8-1.4,3.2-3.2,3.2C382.7,95.2,381.3,93.8,381.2,92"/>
<path class="st0" d="M388.9,89.6c0-0.4,0.3-0.7,0.6-0.7c0,0,0,0,0,0h0.1c0.3,0,0.5,0.2,0.7,0.4l2.5,3.4v-3.1c0-0.4,0.2-0.7,0.6-0.7
	c0.4,0,0.7,0.2,0.7,0.6c0,0.1,0,0.1,0,0.2v4.8c0,0.4-0.3,0.7-0.6,0.7c0,0,0,0,0,0l0,0c-0.3,0-0.5-0.2-0.7-0.4l-2.6-3.5v3.3
	c0,0.4-0.3,0.7-0.6,0.7s-0.7-0.3-0.7-0.6c0,0,0,0,0,0L388.9,89.6z"/>
<path class="st0" d="M395.6,94.4c-0.2-0.1-0.2-0.3-0.2-0.5c0-0.3,0.3-0.6,0.6-0.6c0.1,0,0.3,0,0.4,0.1c0.4,0.3,1,0.5,1.5,0.6
	c0.5,0,0.9-0.2,0.9-0.6l0,0c0-0.3-0.2-0.5-1.2-0.8c-1.2-0.3-2-0.7-2-1.9l0,0c0-1,0.9-1.9,1.9-1.8c0.1,0,0.1,0,0.2,0
	c0.7,0,1.3,0.2,1.9,0.5c0.2,0.1,0.3,0.3,0.3,0.5c0,0.3-0.3,0.6-0.6,0.6c0,0,0,0,0,0c-0.1,0-0.2,0-0.3-0.1c-0.4-0.2-0.8-0.4-1.2-0.4
	c-0.5,0-0.8,0.2-0.8,0.5l0,0c0,0.4,0.3,0.5,1.3,0.8c1.2,0.3,1.9,0.8,1.9,1.8l0,0c0,1.2-0.9,1.9-2.2,1.9
	C397,95.2,396.2,94.9,395.6,94.4"/>
<path class="st0" d="M74.7,149.4c-41.2,0-74.7-33.5-74.6-74.7S33.5,0,74.8,0c9.7,0,19.3,1.9,28.3,5.6c1.9,0.7,2.8,2.8,2.1,4.6
	s-2.8,2.8-4.6,2.1c-0.1,0-0.2-0.1-0.3-0.1C65.9-1.8,26.6,14.6,12.5,49.1s2.4,73.8,36.8,87.9s73.8-2.4,87.9-36.8
	c6.4-15.6,6.7-33,0.9-48.8c-0.6-1.9,0.4-3.9,2.3-4.6c1.8-0.6,3.8,0.3,4.5,2.1c14.3,38.7-5.6,81.7-44.3,96
	C92.2,147.8,83.5,149.4,74.7,149.4"/>
<path class="st2" d="M36.1,113.5c-1.9-1.3-2.3-3.9-1.1-5.7c0.8-1.1,2.1-1.8,3.5-1.8c0.9,0,1.8,0.2,2.6,0.8c3.9,3.3,8.9,5.2,14.1,5.2
	c5.5,0,8.9-2.6,8.9-6.3v-0.1c0-3.6-2-5.5-11.4-7.7C42.1,95.2,36,92.1,36,82.8v-0.2c0-8.6,7.2-14.6,17.2-14.6
	c5.7-0.1,11.3,1.5,16,4.7c1.2,0.7,2,2.1,1.9,3.5c0,2.3-1.9,4.1-4.1,4.1c0,0,0,0,0,0c-0.8,0-1.6-0.2-2.3-0.7
	c-3.4-2.4-7.4-3.7-11.6-3.8c-5.2,0-8.2,2.7-8.2,6V82c0,3.9,2.3,5.6,12,7.9C67.5,92.5,73,96.3,73,104.7v0.1c0,9.4-7.4,15-18,15
	C48.2,119.8,41.5,117.6,36.1,113.5"/>
<path class="st2" d="M100.5,68.8H83.9c-2.5,0-4.5,2-4.5,4.5v41.9c0,2.4,1.9,4.3,4.3,4.4c2.5,0,4.6-2.1,4.6-4.6c0,0,0,0,0,0v-11.9
	l0,0V95l0,0V76.8h11.5c6.6,0,10.9,3.1,10.9,9V86c0,5.2-4.2,9-10.9,9H97c-2.2,0-3.9,1.8-3.9,3.9c0,0,0,0,0,0V99
	c0,2.2,1.7,3.9,3.9,3.9c0,0,0,0,0,0h2.4c11.1,0,20.1-5.9,20.1-17.2v-0.1C119.6,75.5,112.3,68.8,100.5,68.8"/>
<path class="st0" d="M34.5,37.4c0.1-1.7,1.6-3,3.3-2.9c1.6,0.1,2.9,1.4,2.9,2.9v8.4h11.5v-8.4c0.1-1.7,1.6-3,3.3-2.9
	c1.6,0.1,2.9,1.4,2.9,2.9V60c-0.1,1.7-1.6,3-3.3,2.9c-1.6-0.1-2.9-1.4-2.9-2.9v-8.5H40.8V60c-0.1,1.7-1.6,3-3.3,2.9
	c-1.6-0.1-2.9-1.4-2.9-2.9V37.4z"/>
<path class="st0" d="M63.8,59.8V37.6c0-1.7,1.4-3.1,3.1-3.1c0,0,0.1,0,0.1,0h15.7c1.5,0,2.8,1.3,2.8,2.8c0,1.5-1.2,2.8-2.8,2.8
	c0,0,0,0,0,0H70v5.8h10.9c1.5,0,2.8,1.3,2.8,2.8c0,0,0,0,0,0c0,1.5-1.2,2.8-2.8,2.8c0,0,0,0,0,0H70v6h12.9c1.5,0,2.8,1.3,2.8,2.8
	c0,0,0,0,0,0c0,1.5-1.2,2.8-2.8,2.8c0,0,0,0,0,0H67C65.3,63,63.9,61.6,63.8,59.8C63.9,59.8,63.9,59.8,63.8,59.8"/>
<path class="st0" d="M89.9,37.5c0-1.7,1.4-3.1,3.1-3.1c0,0,0,0,0.1,0h0.7c1.2,0,2.3,0.6,2.8,1.6l7.6,12.3l7.6-12.3
	c0.6-1,1.6-1.6,2.8-1.6h0.7c1.7,0,3.1,1.4,3.1,3.1c0,0,0,0,0,0V60c0,1.7-1.4,3.1-3.1,3.1c-1.7,0-3.1-1.4-3.1-3.1c0,0,0,0,0,0V45.9
	l-5.5,8.4c-0.7,1.4-2.5,2-3.9,1.3c-0.5-0.3-1-0.7-1.3-1.3L96.1,46v14.1c0,1.7-1.3,3-3,3c0,0-0.1,0-0.1,0c-1.7,0-3-1.3-3-3L89.9,37.5
	z"/>
<path class="st0" d="M266.7,44.9c0,0.7-0.3,1.4-0.9,1.9c-0.7,0.5-1.5,0.7-2.4,0.7h-1.3V51h-0.6v-8.6h2.1
	C265.6,42.4,266.7,43.3,266.7,44.9z M262.1,47h1.2c0.7,0.1,1.5-0.1,2.1-0.5c0.5-0.4,0.7-1,0.6-1.6c0-0.6-0.2-1.1-0.6-1.5
	c-0.6-0.4-1.2-0.5-1.9-0.5h-1.4V47z"/>
<path class="st0" d="M275.8,46.7c0.1,1.2-0.3,2.3-1,3.2c-1.5,1.6-4,1.6-5.6,0.1c0,0,0,0-0.1-0.1c-0.7-0.9-1.1-2.1-1-3.2
	c-0.1-1.2,0.3-2.3,1-3.2c0.7-0.8,1.8-1.2,2.8-1.2c1.1-0.1,2.1,0.4,2.8,1.2C275.5,44.4,275.8,45.6,275.8,46.7z M268.8,46.7
	c-0.1,1,0.2,2,0.8,2.9c1.3,1.3,3.4,1.3,4.7,0c0,0,0,0,0,0c0.6-0.8,0.9-1.8,0.8-2.9c0.1-1-0.2-2-0.8-2.8c-1.3-1.3-3.4-1.3-4.7,0
	c0,0,0,0,0,0C269,44.7,268.7,45.7,268.8,46.7L268.8,46.7z"/>
<path class="st0" d="M284.3,51h-0.5l-1.9-6.6c-0.2-0.5-0.3-1-0.4-1.3c-0.1,0.3-0.1,0.7-0.3,1.2s-0.8,2.8-1.9,6.8h-0.5l-2.4-8.6h0.6
	l1.5,5.5c0.1,0.2,0.1,0.4,0.2,0.6s0.1,0.4,0.1,0.5s0.1,0.3,0.1,0.5l0.1,0.5c0.1-0.5,0.3-1.3,0.6-2.4l1.5-5.2h0.7l1.7,6
	c0.2,0.7,0.3,1.2,0.4,1.7c0-0.3,0.1-0.6,0.2-0.9s0.7-2.6,1.8-6.8h0.6L284.3,51z"/>
<path class="st0" d="M292.9,51h-4.7v-8.6h4.7V43h-4.1v3.2h3.9v0.5h-3.9v3.7h4.1V51z"/>
<path class="st0" d="M295.5,47.3V51h-0.6v-8.6h2c0.8-0.1,1.7,0.1,2.4,0.6c0.5,0.4,0.8,1.1,0.8,1.8c0,0.5-0.2,1-0.5,1.5
	c-0.4,0.4-0.8,0.7-1.4,0.8l2.4,3.9h-0.7l-2.2-3.7L295.5,47.3z M295.5,46.8h1.6c0.6,0,1.2-0.1,1.7-0.5c0.4-0.4,0.6-0.9,0.6-1.4
	c0-0.5-0.2-1.1-0.6-1.4c-0.6-0.3-1.2-0.5-1.9-0.5h-1.4V46.8z"/>
<path class="st0" d="M306.7,51H302v-8.6h4.7V43h-4.1v3.2h3.9v0.5h-3.9v3.7h4.1L306.7,51z"/>
<path class="st0" d="M315.2,46.7c0.1,1.2-0.4,2.4-1.2,3.3c-0.9,0.8-2.1,1.2-3.3,1.1h-2v-8.6h2.3c2.1-0.3,3.9,1.2,4.2,3.3
	C315.2,46,315.2,46.3,315.2,46.7L315.2,46.7z M314.5,46.7c0.2-1.8-1.1-3.4-2.9-3.7c-0.3,0-0.5,0-0.8,0h-1.6v7.5h1.4
	C313.2,50.5,314.5,49.2,314.5,46.7L314.5,46.7z"/>
<path class="st0" d="M320.3,42.4h2.4c0.8-0.1,1.7,0.1,2.4,0.6c0.5,0.4,0.8,1,0.8,1.6c0,0.5-0.2,0.9-0.5,1.2
	c-0.4,0.4-0.8,0.6-1.3,0.6l0,0c0.6,0,1.1,0.3,1.5,0.7c0.3,0.4,0.5,0.9,0.5,1.4c0,0.7-0.3,1.4-0.8,1.8c-0.6,0.5-1.4,0.7-2.2,0.6h-2.6
	L320.3,42.4z M320.9,46.3h1.9c0.6,0,1.2-0.1,1.8-0.4c0.4-0.3,0.6-0.8,0.5-1.3c0-0.5-0.2-1-0.6-1.2c-0.6-0.3-1.2-0.4-1.9-0.4h-1.7
	V46.3z M320.9,46.8v3.7h2c1.6,0,2.4-0.6,2.4-1.9s-0.8-1.8-2.5-1.8L320.9,46.8z"/>
<path class="st0" d="M329.8,47.1l2.5-4.7h0.7l-2.9,5.3V51h-0.6v-3.2l-2.9-5.3h0.7L329.8,47.1z"/>
<path class="st0" d="M205.4,116.3c-1.1,0-2-0.9-2-2V35c-0.2-1.1,0.4-2.1,1.5-2.4c1.1-0.2,2.1,0.4,2.4,1.5c0.1,0.3,0.1,0.6,0,0.9
	v79.4C207.3,115.4,206.5,116.3,205.4,116.3z"/>
</svg>
