<?xml version="1.0" encoding="utf-8"?>
<!-- Generator: Adobe Illustrator 25.3.0, SVG Export Plug-In . SVG Version: 6.00 Build 0)  -->
<svg version="1.1" id="Layer_1" xmlns="http://www.w3.org/2000/svg" xmlns:xlink="http://www.w3.org/1999/xlink" x="0px" y="0px"
	 viewBox="0 0 1920 1350" style="enable-background:new 0 0 1920 1350;" xml:space="preserve">
<style type="text/css">
	.st0{fill:#F3F5F7;}
</style>
<path class="st0" d="M1920,0c-21.5,74.7-55.5,149-111.9,222.3c-126.3,164.3-374,325.1-795,442.3C800.2,724,544.9,772,372.1,841.2
	c-140.5,56.3-217.4,123.1-307.9,187.2c-20.6,14.6-42,29.1-64.2,43.5v278c22.2-14.4,43.6-28.9,64.2-43.5
	c90.5-64.1,167.5-131,307.9-187.2c172.8-69.2,428.1-117.2,641-176.6c420.9-117.3,668.6-278,795-442.3
	c56.3-73.3,90.3-147.6,111.8-222.3V0z"/>
</svg>
