<svg xmlns="http://www.w3.org/2000/svg" width="2.08in" height="2.06in" viewBox="0 0 150 148.19"><path d="M148.82,132.7l-24.6-24.6,23.83-13.95a1.79,1.79,0,0,0-.29-3.22l-84-31.16a1.71,1.71,0,0,0-2.2,2.2l31.16,84a1.78,1.78,0,0,0,3.21.28l14-23.83L134.51,147a4,4,0,0,0,5.7,0l8.61-8.61A4,4,0,0,0,148.82,132.7Z" transform="translate(0)" fill="#414142"/><path d="M103.61,66.32a43.11,43.11,0,0,0,.29-4.85A42.43,42.43,0,1,0,61.47,103.9a41.73,41.73,0,0,0,7.2-.63L66,96a35.34,35.34,0,0,1-4.51.3A34.84,34.84,0,1,1,96.31,61.47c0,.71,0,1.42-.07,2.12Z" transform="translate(0)" fill="#faa81a"/><path d="M61.47,47.06a14.43,14.43,0,0,1,13.13,8.5l8.69,3.22a22,22,0,1,0-22,24.68l-2.94-7.92a14.41,14.41,0,0,1,3.09-28.48Z" transform="translate(0)" fill="#2b77a5"/><path d="M61.47,115.35A53.91,53.91,0,1,1,114.6,70.4l7.23,2.68a61.44,61.44,0,1,0-46.45,48.27l-2.67-7.19A53.45,53.45,0,0,1,61.47,115.35Z" transform="translate(0)" fill="#2b77a5"/></svg>