<svg xmlns="http://www.w3.org/2000/svg" width="400" height="149.36" viewBox="0 0 400 149.36"><path d="M261.49,70.55a3,3,0,0,1,6,0v8h11v-8a3,3,0,0,1,6,0V92.27a3,3,0,0,1-6,0V84.1h-11v8.17a3,3,0,0,1-6,0Z" fill="#0f4264"/><path d="M289.61,92V70.79a3,3,0,0,1,3-3h15.1a2.7,2.7,0,0,1,2.69,2.69,2.65,2.65,0,0,1-2.69,2.64H295.56v5.53H306a2.7,2.7,0,0,1,2.69,2.68A2.66,2.66,0,0,1,306,84H295.56V89.7H307.9a2.69,2.69,0,0,1,2.68,2.68A2.65,2.65,0,0,1,307.9,95H292.6a3,3,0,0,1-3-3" fill="#0f4264"/><path d="M314.65,70.63a3,3,0,0,1,3-3h.66A3.07,3.07,0,0,1,321,69.19L328.27,81l7.28-11.83a2.93,2.93,0,0,1,2.68-1.51h.66a3,3,0,0,1,3,3V92.27a3,3,0,1,1-5.95,0V78.69l-5.26,8.09a2.8,2.8,0,0,1-5,0l-5.17-8V92.35a2.93,2.93,0,0,1-3,2.92,2.9,2.9,0,0,1-2.92-2.92Z" fill="#0f4264"/><path d="M338.94,101.06a3,3,0,0,1,0,6H317.43a3,3,0,0,1,0-6Z" fill="#00aff0"/><path d="M348.39,73.53V68.79a.65.65,0,0,1,.64-.67h3.2a.58.58,0,0,1,.57.6.57.57,0,0,1-.57.59h-2.57v1.23h2.2a.59.59,0,0,1,.57.6.58.58,0,0,1-.57.59h-2.2V73h2.61a.58.58,0,0,1,.57.6.57.57,0,0,1-.57.59H349a.65.65,0,0,1-.64-.67" fill="#0f4264"/><path d="M356.26,73A1.7,1.7,0,0,0,358,71.18v0a1.72,1.72,0,0,0-1.75-1.84h-1V73ZM354,68.79a.64.64,0,0,1,.63-.67h1.62a2.94,2.94,0,0,1,3.07,3v0a3,3,0,0,1-3.07,3h-1.62a.64.64,0,0,1-.63-.67Z" fill="#0f4264"/><path d="M360.46,71.59V68.73a.64.64,0,1,1,1.27,0v2.83c0,1,.47,1.5,1.25,1.5s1.24-.49,1.24-1.46V68.73a.64.64,0,1,1,1.28,0v2.82c0,1.84-1,2.75-2.54,2.75s-2.5-.91-2.5-2.71" fill="#0f4264"/><path d="M366.62,71.18v0a3.09,3.09,0,0,1,4.95-2.53.68.68,0,0,1,.24.53.62.62,0,0,1-1,.52,1.84,1.84,0,0,0-1.18-.43A1.76,1.76,0,0,0,368,71.14v0a1.74,1.74,0,0,0,2.93,1.43.61.61,0,0,1,.38-.14.6.6,0,0,1,.59.61.62.62,0,0,1-.21.48,2.82,2.82,0,0,1-2.06.77,3,3,0,0,1-3-3.13" fill="#0f4264"/><path d="M376.31,71.66l-.8-2-.81,2Zm-3.58,1.68,2-4.79a.78.78,0,0,1,.74-.53h.07a.78.78,0,0,1,.74.53l2,4.79a.72.72,0,0,1,.07.27.62.62,0,0,1-.6.64.64.64,0,0,1-.61-.46l-.39-1h-2.55l-.4,1a.62.62,0,0,1-.59.41.6.6,0,0,1-.58-.62.77.77,0,0,1,.07-.29" fill="#0f4264"/><path d="M380.19,69.35H379a.6.6,0,0,1-.59-.62.6.6,0,0,1,.59-.61h3.71a.6.6,0,0,1,.59.61.61.61,0,0,1-.59.62h-1.22v4.23a.64.64,0,1,1-1.27,0Z" fill="#0f4264"/><path d="M384.33,68.73a.64.64,0,1,1,1.28,0v4.85a.64.64,0,1,1-1.28,0Z" fill="#0f4264"/><path d="M391.69,71.18v0a1.8,1.8,0,0,0-1.75-1.91,1.78,1.78,0,0,0-1.73,1.89v0A1.81,1.81,0,0,0,390,73.07a1.78,1.78,0,0,0,1.73-1.89m-4.81,0v0A3.07,3.07,0,0,1,390,68,3,3,0,0,1,393,71.14v0a3.07,3.07,0,1,1-6.14,0" fill="#0f4264"/><path d="M394.24,68.75a.65.65,0,0,1,.63-.67H395a.8.8,0,0,1,.66.39l2.45,3.39V68.73a.65.65,0,0,1,.63-.67.66.66,0,0,1,.63.67v4.84a.66.66,0,0,1-.64.67h0a.78.78,0,0,1-.66-.39l-2.55-3.52v3.26a.63.63,0,1,1-1.25,0Z" fill="#0f4264"/><path d="M348.39,79.18a.64.64,0,0,1,.64-.66h.14a.65.65,0,0,1,.58.34l1.53,2.64,1.55-2.65a.61.61,0,0,1,.57-.33h.14a.64.64,0,0,1,.63.66V84a.63.63,0,1,1-1.26,0V81l-1.12,1.81a.58.58,0,0,1-1.05,0L349.64,81v3a.64.64,0,0,1-.63.66.63.63,0,0,1-.62-.66Z" fill="#0f4264"/><path d="M358.9,82.09l-.8-2-.81,2Zm-3.58,1.68,2-4.79a.78.78,0,0,1,.74-.53h.07a.78.78,0,0,1,.74.53l2,4.79A.77.77,0,0,1,361,84a.63.63,0,0,1-.6.65.67.67,0,0,1-.62-.46l-.38-1h-2.55l-.4,1a.63.63,0,0,1-.59.42.6.6,0,0,1-.58-.63.82.82,0,0,1,.07-.29" fill="#0f4264"/><path d="M364.61,81.51a.86.86,0,0,0,1-.87h0c0-.58-.38-.87-1-.87h-1.27v1.75Zm-2.56-2.29a.65.65,0,0,1,.64-.67h2a2.23,2.23,0,0,1,1.68.62,2,2,0,0,1,.49,1.39h0a1.87,1.87,0,0,1-1.15,1.86l.88,1.13a.75.75,0,0,1,.21.51.61.61,0,0,1-.6.62.76.76,0,0,1-.63-.35l-1.24-1.65h-1V84a.64.64,0,1,1-1.27,0Z" fill="#0f4264"/><path d="M368.1,79.17a.64.64,0,1,1,1.28,0v2l2.34-2.45a.7.7,0,0,1,.54-.26.6.6,0,0,1,.59.61.71.71,0,0,1-.24.51L371,81.22l1.77,2.34a.76.76,0,0,1,.18.47.64.64,0,0,1-.65.66.66.66,0,0,1-.54-.33l-1.65-2.27-.72.71V84a.64.64,0,1,1-1.28,0Z" fill="#0f4264"/><path d="M374.07,84V79.22a.64.64,0,0,1,.63-.67h3.21a.59.59,0,0,1,.57.6.58.58,0,0,1-.57.59h-2.58V81h2.21a.58.58,0,0,1,.57.59.59.59,0,0,1-.57.6h-2.21v1.27H378a.59.59,0,0,1,.57.6.58.58,0,0,1-.57.59H374.7a.64.64,0,0,1-.63-.66" fill="#0f4264"/><path d="M381,79.78h-1.22a.6.6,0,0,1-.59-.61.61.61,0,0,1,.59-.62h3.72a.6.6,0,0,1,.58.62.59.59,0,0,1-.58.61H382.3V84A.64.64,0,1,1,381,84Z" fill="#0f4264"/><path d="M385.18,79.17a.64.64,0,1,1,1.27,0V84a.64.64,0,1,1-1.27,0Z" fill="#0f4264"/><path d="M388,79.18a.64.64,0,0,1,.63-.66h.13a.79.79,0,0,1,.67.39l2.45,3.39V79.16a.63.63,0,1,1,1.25,0V84a.65.65,0,0,1-.63.67h0a.78.78,0,0,1-.66-.39l-2.55-3.51V84A.63.63,0,1,1,388,84Z" fill="#0f4264"/><path d="M394.33,81.61v0a3.15,3.15,0,0,1,5-2.55.67.67,0,0,1-.36,1.2.61.61,0,0,1-.39-.14,2,2,0,0,0-1.26-.42,1.79,1.79,0,0,0-1.66,1.89v0a1.78,1.78,0,0,0,1.75,1.93,2,2,0,0,0,1.2-.36v-.87h-.86a.56.56,0,0,1-.56-.58.57.57,0,0,1,.56-.58h1.45a.65.65,0,0,1,.64.67v1.48a.91.91,0,0,1-.45.85,3.75,3.75,0,0,1-2,.61,3,3,0,0,1-3-3.13" fill="#0f4264"/><path d="M348.29,94.42a.62.62,0,0,1-.24-.5.61.61,0,0,1,.61-.62.6.6,0,0,1,.37.12,2.51,2.51,0,0,0,1.53.55c.54,0,.86-.22.86-.57v0c0-.34-.2-.51-1.2-.77-1.2-.32-2-.65-2-1.86v0a1.88,1.88,0,0,1,2.09-1.83,3.48,3.48,0,0,1,1.89.53.62.62,0,0,1-.32,1.15.67.67,0,0,1-.34-.09,2.43,2.43,0,0,0-1.25-.41c-.5,0-.76.23-.76.53h0c0,.4.25.53,1.28.8,1.21.33,1.89.77,1.89,1.83v0c0,1.21-.9,1.88-2.19,1.88a3.79,3.79,0,0,1-2.24-.73" fill="#0f4264"/><path d="M358.65,92v0a1.83,1.83,0,0,0-1.8-1.91,1.8,1.8,0,0,0-1.79,1.9h0a1.83,1.83,0,0,0,1.8,1.92,1.81,1.81,0,0,0,1.79-1.9m-5,0v0A3.17,3.17,0,0,1,360,92h0a3.17,3.17,0,0,1-6.33,0" fill="#0f4264"/><path d="M361.28,89.6a.66.66,0,1,1,1.31,0v4.25H365a.61.61,0,0,1,0,1.22h-3.09a.66.66,0,0,1-.65-.67Z" fill="#0f4264"/><path d="M366.37,92.46V89.6a.66.66,0,1,1,1.32,0v2.82c0,1,.48,1.51,1.28,1.51s1.29-.5,1.29-1.46V89.6a.66.66,0,1,1,1.31,0v2.81A2.42,2.42,0,0,1,369,95.16a2.39,2.39,0,0,1-2.58-2.7" fill="#0f4264"/><path d="M374.38,90.22h-1.26a.62.62,0,0,1,0-1.24H377a.62.62,0,0,1,0,1.24h-1.26v4.23a.66.66,0,1,1-1.31,0Z" fill="#0f4264"/><path d="M378.66,89.6a.66.66,0,1,1,1.31,0v4.85a.66.66,0,1,1-1.31,0Z" fill="#0f4264"/><path d="M386.25,92v0a1.83,1.83,0,0,0-1.81-1.91,1.81,1.81,0,0,0-1.79,1.9h0a1.84,1.84,0,0,0,1.81,1.92,1.81,1.81,0,0,0,1.79-1.9m-5,0v0a3.17,3.17,0,0,1,6.34,0h0a3.17,3.17,0,0,1-6.34,0" fill="#0f4264"/><path d="M388.87,89.62a.66.66,0,0,1,.66-.67h.14a.8.8,0,0,1,.68.39l2.53,3.39V89.59a.65.65,0,1,1,1.29,0v4.84a.65.65,0,0,1-.65.67h0a.8.8,0,0,1-.68-.39l-2.62-3.51v3.26a.65.65,0,1,1-1.3,0Z" fill="#0f4264"/><path d="M395.57,94.42a.63.63,0,0,1-.25-.5.62.62,0,0,1,.62-.62.6.6,0,0,1,.37.12,2.49,2.49,0,0,0,1.53.55c.53,0,.86-.22.86-.57v0c0-.34-.21-.51-1.2-.77-1.21-.32-2-.65-2-1.86v0a1.88,1.88,0,0,1,2.09-1.83,3.48,3.48,0,0,1,1.89.53.63.63,0,0,1,.29.53.61.61,0,0,1-.62.62.63.63,0,0,1-.33-.09,2.43,2.43,0,0,0-1.25-.41c-.5,0-.77.23-.77.53h0c0,.4.26.53,1.29.8,1.21.33,1.89.77,1.89,1.83v0c0,1.21-.9,1.88-2.19,1.88a3.77,3.77,0,0,1-2.24-.73" fill="#0f4264"/><path d="M74.68,149.36A74.68,74.68,0,1,1,103.08,5.59a3.61,3.61,0,1,1-2.75,6.67A67.36,67.36,0,1,0,138,51.31a3.61,3.61,0,0,1,6.77-2.5A74.74,74.74,0,0,1,74.68,149.36" fill="#0f4264"/><path d="M36.11,113.51A4.12,4.12,0,0,1,38.55,106a4.07,4.07,0,0,1,2.59.8A21.89,21.89,0,0,0,55.24,112c5.47,0,8.92-2.59,8.92-6.33v-.14c0-3.6-2-5.54-11.37-7.7C42.08,95.24,36,92.07,36,82.8v-.15c0-8.63,7.2-14.6,17.19-14.6a27.74,27.74,0,0,1,16,4.67,4,4,0,0,1,1.94,3.53A4.11,4.11,0,0,1,67,80.35a4.33,4.33,0,0,1-2.31-.65,20.9,20.9,0,0,0-11.58-3.81c-5.18,0-8.2,2.66-8.2,6V82c0,3.88,2.3,5.61,12,7.91C67.54,92.51,73,96.32,73,104.67v.14c0,9.43-7.41,15-18,15a31.3,31.3,0,0,1-18.92-6.34" fill="#00b0f0"/><path d="M100.5,68.77H83.87a4.46,4.46,0,0,0-4.46,4.46V115.1a4.37,4.37,0,0,0,4.29,4.38,4.6,4.6,0,0,0,4.56-4.66V102.94h0V95h0V76.83H99.78c6.62,0,10.86,3.09,10.86,9V86c0,5.25-4.17,9-10.86,9H97a3.93,3.93,0,0,0-3.93,3.94V99A3.93,3.93,0,0,0,97,102.94h2.45c11.08,0,20.14-5.9,20.14-17.2V85.6c0-10.14-7.33-16.83-19.13-16.83" fill="#00b0f0"/><path d="M34.52,37.4a3.13,3.13,0,0,1,6.25,0v8.36H52.28V37.4a3.13,3.13,0,0,1,6.25,0V60a3.13,3.13,0,0,1-6.25,0V51.52H40.77V60a3.13,3.13,0,0,1-6.25,0Z" fill="#0f4264"/><path d="M63.83,59.79V37.64A3.1,3.1,0,0,1,67,34.52H82.69a2.81,2.81,0,0,1,2.8,2.8,2.77,2.77,0,0,1-2.8,2.76H70v5.76H80.86a2.8,2.8,0,0,1,2.8,2.8,2.76,2.76,0,0,1-2.8,2.75H70v6H82.89a2.8,2.8,0,0,1,2.8,2.8,2.77,2.77,0,0,1-2.8,2.76H67a3.11,3.11,0,0,1-3.12-3.13" fill="#0f4264"/><path d="M89.93,37.48a3.1,3.1,0,0,1,3.13-3.12h.68A3.19,3.19,0,0,1,96.58,36l7.55,12.28,7.58-12.33a3.07,3.07,0,0,1,2.8-1.58h.69a3.1,3.1,0,0,1,3.12,3.12V60a3.1,3.1,0,1,1-6.2,0V45.88l-5.48,8.44a2.92,2.92,0,0,1-5.19,0L96.06,46V60.12a3,3,0,0,1-3.09,3,3,3,0,0,1-3-3Z" fill="#0f4264"/><path d="M266.66,44.91a2.28,2.28,0,0,1-.85,1.91,3.8,3.8,0,0,1-2.39.66h-1.33V51h-.6V42.44h2.1C265.64,42.44,266.66,43.26,266.66,44.91ZM262.09,47h1.18a3.66,3.66,0,0,0,2.1-.47,1.81,1.81,0,0,0,.64-1.56,1.75,1.75,0,0,0-.61-1.47,3.06,3.06,0,0,0-1.89-.48h-1.42Z" fill="#0f4264"/><path d="M275.75,46.72a4.8,4.8,0,0,1-1,3.24,3.94,3.94,0,0,1-5.64,0,4.83,4.83,0,0,1-1-3.25,4.75,4.75,0,0,1,1-3.23,3.57,3.57,0,0,1,2.82-1.17,3.49,3.49,0,0,1,2.81,1.18A4.79,4.79,0,0,1,275.75,46.72Zm-7,0a4.49,4.49,0,0,0,.82,2.86,3.32,3.32,0,0,0,4.74,0,4.46,4.46,0,0,0,.82-2.87,4.39,4.39,0,0,0-.82-2.84,3.31,3.31,0,0,0-4.73,0A4.32,4.32,0,0,0,268.72,46.72Z" fill="#0f4264"/><path d="M284.34,51h-.49L282,44.4c-.16-.54-.27-1-.35-1.34-.06.34-.15.74-.27,1.18S280.59,47,279.45,51h-.51l-2.36-8.59h.63l1.5,5.54c.06.22.11.43.17.62s.09.36.13.53.08.33.12.48l.09.47q.13-.8.6-2.43l1.46-5.21H282l1.72,6c.2.69.34,1.25.43,1.67,0-.28.11-.58.2-.9s.68-2.57,1.81-6.75h.6Z" fill="#0f4264"/><path d="M292.92,51h-4.69V42.44h4.69V43h-4.09v3.25h3.86v.55h-3.86v3.69h4.09Z" fill="#0f4264"/><path d="M295.47,47.29V51h-.6V42.44h2a3.86,3.86,0,0,1,2.36.59,2.11,2.11,0,0,1,.77,1.78,2.38,2.38,0,0,1-.46,1.46,2.52,2.52,0,0,1-1.38.85L300.53,51h-.72l-2.21-3.74Zm0-.52h1.64a2.62,2.62,0,0,0,1.68-.48,1.74,1.74,0,0,0,.6-1.43,1.68,1.68,0,0,0-.59-1.43,3.18,3.18,0,0,0-1.91-.45h-1.42Z" fill="#0f4264"/><path d="M306.71,51H302V42.44h4.69V43h-4.09v3.25h3.86v.55h-3.86v3.69h4.09Z" fill="#0f4264"/><path d="M315.18,46.65A4.36,4.36,0,0,1,314,49.92,4.55,4.55,0,0,1,310.71,51h-2V42.44H311a3.77,3.77,0,0,1,4.2,4.21Zm-.66,0A3.28,3.28,0,0,0,310.84,43h-1.58V50.5h1.42Q314.52,50.5,314.52,46.68Z" fill="#0f4264"/><path d="M320.28,42.44h2.35A4,4,0,0,1,325,43a1.89,1.89,0,0,1,.75,1.64,1.75,1.75,0,0,1-.46,1.24,2.2,2.2,0,0,1-1.33.63v0a2.56,2.56,0,0,1,1.51.65,1.86,1.86,0,0,1,.49,1.38,2.22,2.22,0,0,1-.79,1.83,3.43,3.43,0,0,1-2.23.64h-2.63Zm.6,3.83h1.89a3,3,0,0,0,1.76-.41,1.47,1.47,0,0,0,.55-1.26,1.36,1.36,0,0,0-.62-1.24,3.54,3.54,0,0,0-1.85-.39h-1.73Zm0,.52V50.5h2c1.59,0,2.38-.64,2.38-1.94s-.84-1.77-2.51-1.77Z" fill="#0f4264"/><path d="M329.8,47.14l2.51-4.7H333l-2.87,5.27V51h-.61V47.76l-2.87-5.32h.68Z" fill="#0f4264"/><path d="M205.43,116.31a2,2,0,0,1-2-2V35a2,2,0,1,1,3.9,0v79.36A2,2,0,0,1,205.43,116.31Z" fill="#0f4264"/></svg>