<svg xmlns="http://www.w3.org/2000/svg" width="140" height="69.51" viewBox="0 0 140 69.51"><path d="M0,5.22A5.17,5.17,0,0,1,5.22,0a5.17,5.17,0,0,1,5.21,5.22v14H29.67v-14a5.22,5.22,0,1,1,10.43,0V43a5.22,5.22,0,0,1-10.43,0V28.79H10.43V43a5.17,5.17,0,0,1-5.21,5.21A5.17,5.17,0,0,1,0,43Z" fill="#0e4c6d"/><path d="M49,42.61v-37A5.18,5.18,0,0,1,54.17.41H80.45a4.68,4.68,0,0,1,4.68,4.67,4.63,4.63,0,0,1-4.68,4.61H59.32V19.3H77.4A4.69,4.69,0,0,1,82.08,24a4.63,4.63,0,0,1-4.68,4.61H59.32v10H80.79a4.69,4.69,0,0,1,4.68,4.67,4.64,4.64,0,0,1-4.68,4.61H54.17A5.19,5.19,0,0,1,49,42.61" fill="#0e4c6d"/><path d="M92.55,5.35A5.18,5.18,0,0,1,97.76.13h1.15a5.34,5.34,0,0,1,4.74,2.72l12.6,20.52L128.92,2.78A5.11,5.11,0,0,1,133.6.13h1.15A5.18,5.18,0,0,1,140,5.35V43a5.18,5.18,0,1,1-10.36,0V19.37l-9.14,14.1a4.89,4.89,0,0,1-8.68,0l-9-13.89V43.15a5.08,5.08,0,0,1-5.14,5.08,5,5,0,0,1-5.08-5.08Z" fill="#0e4c6d"/><path d="M134.83,59.08a5.22,5.22,0,0,1,0,10.43H97.39a5.22,5.22,0,0,1,0-10.43" fill="#2a77a4"/></svg>